<svg xmlns="http://www.w3.org/2000/svg" width="838.406" height="198.56" viewBox="0 0 838.406 198.56">
  <defs>
    <style>
      .cls-1 {
        fill: #080808;
        fill-rule: evenodd;
      }
    </style>
  </defs>
  <path id="txt_recruit.svg" class="cls-1" d="M77.726,5720.78h35.547v-79.09h3.253l41.994,79.09h38.859l-44.239-83.03q17.769-6.345,26.593-18.72t8.823-30.79q0-17.52-7.99-30.34a45.125,45.125,0,0,0-21.114-18.34q-13.125-5.535-44.065-5.53H77.726v186.75Zm35.547-152.09h9.745q14.177,0,19.49,1.98a17.535,17.535,0,0,1,8.48,6.49,18.106,18.106,0,0,1,3.164,10.64q0,10.32-6.392,14.77-6.39,4.47-23.349,4.46H113.273v-38.34Zm247.558,86.46q0-34.29-20.439-55.16-20.442-20.895-53.066-20.89-30.726,0-51.1,20.89t-20.376,52.49q0,30.855,20.439,51.35t52.94,20.51q20.947,0,36.181-7.43t26.153-22.92l-29.2-13.71a46.2,46.2,0,0,1-33.389,13.59q-16.252,0-26.724-8.7t-12.885-23.42H360.7Zm-109.941-20.7q5.85-12.81,12.717-17.9a41.523,41.523,0,0,1,25.432-8.12,39.29,39.29,0,0,1,23.463,7.23,34.8,34.8,0,0,1,13.544,18.79H250.89Zm246.289-47.16q-16.377-8.19-36.943-8.19-22.218,0-40.181,9.65a71.11,71.11,0,0,0-38.022,63.48q0,28.935,20.629,50.52t57.066,21.59q40.5,0,62.715-28.9l-27.329-18.71q-12.964,15.87-36.225,15.87-18.812,0-30.378-11.16-11.568-11.145-11.566-28.77,0-18.12,12.011-29.72t31.458-11.6a48.31,48.31,0,0,1,18.621,3.3q7.944,3.3,16.079,11.81l28.852-15.87A70.065,70.065,0,0,0,497.179,5587.29Zm49.893,133.49h34.4v-55.86l-0.127-6.73q0-28.935,5.522-38.84t13.521-9.91q3.933,0,10.029,3.05l10.791-29.83a32.422,32.422,0,0,0-14.091-3.56,30.97,30.97,0,0,0-17.52,5.33q-8,5.34-12.822,15.62v-17.39H547.072v138.12Zm91.152-80.61q0,33.135,4.063,45.7,5.712,18.15,19.741,28.31t36.753,10.16q20.947,0,34.531-8.7t20.566-24.95q5.713-13.32,5.713-49.51v-58.52H724.933v67.66q0,19.56-2.164,25.52a24.2,24.2,0,0,1-8.972,12.12,25.388,25.388,0,0,1-14.7,4.13q-8.655,0-14.572-4.19a23.544,23.544,0,0,1-8.591-11.74q-2.671-7.56-2.672-26.98v-66.52H638.224v57.51Zm154.1-107.91a21.294,21.294,0,0,0-6.454,15.61,22.3,22.3,0,0,0,6.518,16.19,21.248,21.248,0,0,0,15.762,6.66,20.939,20.939,0,0,0,15.442-6.54,21.639,21.639,0,0,0,6.457-15.8,21.938,21.938,0,0,0-6.52-16A21.882,21.882,0,0,0,792.325,5532.26Zm-1.757,188.52h34.658V5582.66H790.568v138.12ZM860.9,5582.66H843.126v29.83H860.9v108.29h34.658V5612.49h20.566v-29.83H895.558v-50.91H860.9v50.91Z" transform="translate(-77.719 -5525.78)"/>
</svg>
